<?xml version="1.0" encoding="utf-8"?>
<!-- Generator: Adobe Illustrator 19.0.0, SVG Export Plug-In . SVG Version: 6.00 Build 0)  -->
<svg version="1.1" id="图层_1" xmlns="http://www.w3.org/2000/svg" xmlns:xlink="http://www.w3.org/1999/xlink" x="0px" y="0px"
	 viewBox="-283 406.9 29 28" style="enable-background:new -283 406.9 29 28;" xml:space="preserve">
<title>app logo</title>
<desc>Created with Sketch.</desc>
<g id="app-logo" transform="translate(0.000000, 1.000000)">
	<g id="Slice-5-_x2B_-Imported-Layers-Copy-8" transform="translate(0.684685, 0.000000)">
		<g id="Imported-Layers-Copy-8" transform="translate(0.017880, 0.070361)">
			<path id="Fill-1" d="M-259.4,422.7c0.4-0.2,1.8-0.2,1.8-0.2s0.7-0.3,1-0.4c0.2-0.1,0.6,0,0.6,0l0.2-0.4c0,0,0.3-0.4,0.1-0.6
				c-0.3-0.2-1-0.3-1-0.3s1.2-0.5,1.5-0.6c0.3-0.1,0.2-0.3,0.2-0.3s-4.8,0.4-6.8,0.6c0,0,0,0,0,0c0.1-0.4,0.3-0.8,0.4-1.2
				c0.2-0.5,0.5-1.2,0.7-1.8c0.3-1,0.4-1.6,1-3.6c0.6-2.3-0.3-5.2-1-6c-0.7-0.9-2.2-1.3-4.8,0c-2.6,1.3-6.6,5.8-9.7,10.6
				c-0.4,0.6-0.8,1.3-1.2,2c-2.4-0.5-4.2-1.2-5.6-1.3c-0.2,0-0.8,0.3-0.5,1c0.3,0.7,2,3.7,3.3,3.8c0.2,0,0.5,0.1,0.9,0.2
				c-1.4,3-2.3,5.6-2.5,6.4c-0.1,0.7-0.3,1.4,0,1.7c0.3,0.3,1-0.2,1,0.4c0,0.3-0.6,2.3,1.1,1.3c0.3-0.2,1.4-0.2,1.8-0.5
				c0.2-0.1,0.5-0.9,0.6-1c0.1-0.1-0.2,0.8-0.1,0.8c0.5-0.1,1,0.1,1.2-0.2c0.9-1.3,1.2-2.8,1.6-4c0.3-0.9,0.8-2.2,1.7-4
				c0.2,0,0.4,0,0.7,0c0.9-0.1,2.1-0.1,3.5-0.2c-0.8,1.8-1.4,3.1-1.5,3.5c-0.3,1.2,2.9,1.6,4.1,1c0.7-0.4,1.6-2.8,2.2-4.9
				c2.6-0.2,4.9-0.5,5.6-0.7c1.4-0.5-2.2-0.6-2.2-0.6S-259.9,422.9-259.4,422.7L-259.4,422.7z M-270.2,421
				c2.3-3.9,7.2-11,7.4-9.4c0.1,1-1.7,5.3-3.5,9.2C-267.5,420.9-268.9,421-270.2,421L-270.2,421z"/>
			<path id="Fill-2" d="M-255.3,422.2c0,0-0.5,0.4-1,0.4c-0.5,0,0.2,0.5,0.5,0.4c0.3-0.1,0.6-0.1,0.8-0.4
				C-254.7,422.3-255.3,422.2-255.3,422.2"/>
		</g>
	</g>
</g>
</svg>
